Coordinates
version=1
nRows=13
nColumns=36
inDegrees=yes

Units are S.I. units (second, meters, Newtons, ...)
If the header above contains a line with 'inDegrees', this indicates whether rotational values are in degrees (yes) or radians (no).

endheader
time	pelvis_tilt	pelvis_list	pelvis_rotation	pelvis_tx	pelvis_ty	pelvis_tz	hip_flexion_r	hip_adduction_r	hip_rotation_r	knee_angle_r	knee_angle_r_beta	ankle_angle_r	subtalar_angle_r	mtp_angle_r	hip_flexion_l	hip_adduction_l	hip_rotation_l	knee_angle_l	knee_angle_l_beta	ankle_angle_l	subtalar_angle_l	mtp_angle_l	lumbar_extension	lumbar_bending	lumbar_rotation	arm_flex_r	arm_add_r	arm_rot_r	elbow_flex_r	pro_sup_r	arm_flex_l	arm_add_l	arm_rot_l	elbow_flex_l	pro_sup_l
      0.00000000	     -4.77550886	      2.58064993	     -1.67602205	     -0.46834047	      0.90660593	     -0.21836779	     26.37788621	     -6.81566479	     -6.69233170	     67.41341203	      1.17658600	      0.11402626	     -7.52141644	     -4.24555529	     11.78048902	      7.32276716	     -0.10143948	     13.22875035	      0.23088525	     11.39475056	     -5.74582338	     -4.24555529	     -7.26797296	    -18.64599802	     -7.30586765	     -6.42092512	    -16.17430374	     17.25713301	     42.03996892	    101.17658169	      0.44205949	    -16.58957938	     -7.46990049	     46.16652453	     99.47979737
      0.01000000	     -5.08035176	      2.29203312	     -1.18494384	     -0.46007266	      0.90627793	     -0.22007234	     27.90941585	     -6.48105253	     -6.94650430	     66.19949910	      1.15539922	      0.37882572	     -7.34555749	     -4.27170865	     11.44815503	      7.20334424	      0.25848972	     13.07979276	      0.22828545	     11.48061047	     -5.65658762	     -4.27170865	     -7.16721676	    -18.25358881	     -7.69435672	     -6.44433032	    -16.28661990	     17.26201758	     41.98833319	    101.30629717	      0.56023307	    -16.47083912	     -7.24020525	     46.51400609	     99.55272544
      0.02000000	     -5.32803206	      2.01384645	     -0.60564836	     -0.45179027	      0.90594103	     -0.22184909	     29.28102831	     -6.21958040	     -7.24094337	     64.84826522	      1.13181574	      0.75752532	     -6.89306365	     -4.32979673	     11.06837401	      7.12825409	      0.90199797	     12.98762755	      0.22667686	     11.85735098	     -5.58025630	     -4.32979673	     -7.17479449	    -17.88054853	     -8.24627446	     -6.39181633	    -16.35302914	     17.24990572	     41.84065549	    101.57315368	      0.62162485	    -16.45242684	     -6.90609308	     46.98388937	     99.66240051
      0.03000000	     -5.58279721	      1.78110832	     -0.12102484	     -0.44339557	      0.90551007	     -0.22342105	     30.62510388	     -5.93657107	     -7.34428810	     63.36469361	      1.10592253	      0.96872971	     -6.62238514	     -4.35560115	     10.66201256	      7.04562941	      1.24058349	     12.79159642	      0.22325547	     11.95366950	     -5.41044029	     -4.35560115	     -7.09918556	    -17.56646286	     -8.59803111	     -6.43759464	    -16.42398796	     17.21508253	     41.75409256	    101.68071830	      0.74907848	    -16.36219777	     -6.70167071	     47.34964741	     99.72986995
      0.04000000	     -5.78959640	      1.59350674	      0.37572792	     -0.43497580	      0.90509929	     -0.22491559	     31.83740366	     -5.69129587	     -7.36616762	     61.72643934	      1.07732960	      1.17143510	     -6.37297757	     -4.37918432	     10.21272647	      7.00567531	      1.64701988	     12.63569771	      0.22053453	     12.14803775	     -5.25236580	     -4.37918432	     -7.09368402	    -17.30405703	     -8.97818117	     -6.47279943	    -16.44850008	     17.14777448	     41.63734810	    101.77013801	      0.85313768	    -16.32687699	     -6.46657320	     47.73268593	     99.80048520
      0.05000000	     -5.95965585	      1.37639735	      0.87400635	     -0.42655384	      0.90475550	     -0.22632747	     32.90665591	     -5.37554529	     -7.28669288	     59.89815642	      1.04542005	      1.40007439	     -6.15044124	     -4.40567610	      9.69758711	      6.92190634	      2.14403426	     12.43955673	      0.21711122	     12.39961532	     -5.06906725	     -4.40567610	     -7.11829065	    -17.00627349	     -9.37310458	     -6.47082168	    -16.44490585	     17.02469847	     41.46983621	    101.86100302	      0.91063491	    -16.32634024	     -6.18370671	     48.16059489	     99.88092454
      0.06000000	     -6.07425196	      1.24397312	      1.33388964	     -0.41813284	      0.90455013	     -0.22762191	     33.84590942	     -5.11506665	     -7.06135134	     57.94302158	      1.01129651	      1.63866038	     -6.00962378	     -4.42985659	      9.10820031	      6.90667405	      2.54046444	     12.21857173	      0.21325431	     12.64826540	     -4.90583771	     -4.42985659	     -7.18392141	    -16.80298758	     -9.72354356	     -6.47455315	    -16.40247724	     16.87264071	     41.29451516	    101.93582152	      0.96167674	    -16.35851445	     -5.93648910	     48.54103900	     99.95226700
      0.07000000	     -6.02111125	      1.09445902	      1.81863205	     -0.40973691	      0.90470956	     -0.22889691	     34.46759142	     -4.82977661	     -6.79542166	     55.79014164	      0.97372166	      1.94000472	     -5.94124558	     -4.48893785	      8.26807721	      6.85412363	      3.01286172	     11.88215884	      0.20738279	     13.07259145	     -4.66666478	     -4.48893785	     -7.46755243	    -16.56601508	    -10.11355969	     -6.40325166	    -16.26841379	     16.50790504	     40.98886862	    102.11495205	      0.97752899	    -16.43832300	     -5.60929853	     49.00624269	    100.05248797
      0.08000000	     -6.01145992	      0.98952418	      2.22359929	     -0.40137135	      0.90489912	     -0.23005415	     35.08393763	     -4.51672624	     -6.31131397	     53.54100412	      0.93446681	      2.25699617	     -5.88335727	     -4.53399539	      7.46595382	      6.81941453	      3.29792427	     11.50855665	      0.20086221	     13.36476928	     -4.43720894	     -4.53399539	     -7.63982865	    -16.35768876	    -10.37966504	     -6.40524874	    -16.17108770	     16.14566175	     40.77302246	    102.23115805	      0.98899670	    -16.48526347	     -5.39562465	     49.34325969	    100.12592632
      0.09000000	     -6.01703817	      0.91849974	      2.60219295	     -0.39307668	      0.90510692	     -0.23117181	     35.65265972	     -4.18213164	     -5.61786702	     51.19216391	      0.89347181	      2.56487380	     -5.76071791	     -4.56478574	      6.67099302	      6.80685126	      3.56005985	     11.12873681	      0.19423310	     13.61840933	     -4.19933799	     -4.56478574	     -7.76476239	    -16.17623769	    -10.63550398	     -6.40498645	    -16.06537414	     15.78434725	     40.60983846	    102.29009565	      0.96009287	    -16.51766905	     -5.21119940	     49.60978478	    100.18621531
      0.10000000	     -5.91523369	      0.84793545	      2.97467078	     -0.38474222	      0.90548233	     -0.23229001	     35.99816113	     -3.85588403	     -4.89978192	     48.69664733	      0.84991683	      2.89067752	     -5.60817983	     -4.59730284	      5.71985738	      6.77775151	      3.81261025	     10.68651538	      0.18651488	     13.96389180	     -3.92483635	     -4.59730284	     -8.02146216	    -15.97426391	    -10.86355280	     -6.39041370	    -15.92888352	     15.29662789	     40.38912512	    102.33268365	      0.92100407	    -16.54884248	     -5.02078776	     49.88368778	    100.25091506
      0.11000000	     -5.72023978	      0.80302614	      3.35046693	     -0.37629936	      0.90588348	     -0.23340548	     36.15767919	     -3.59390670	     -4.21610000	     46.10324148	      0.80465336	      3.12840858	     -5.47400077	     -4.75615912	      4.66737257	      6.73209522	      3.83893776	     10.25362667	      0.17895955	     14.56875749	     -3.12131430	     -4.75615912	     -8.40367641	    -15.75886982	    -10.90558665	     -6.61977399	    -15.60822880	     13.84344269	     40.36139656	    102.68804255	      1.03532864	    -16.56152398	     -4.70241562	     50.08033642	    100.38667816
      0.12000000	     -5.74349357	      0.80198241	      3.68567223	     -0.36789750	      0.90575619	     -0.23453025	     36.52984284	     -3.34586171	     -3.29531501	     43.47060360	      0.75870516	      3.32821964	     -5.10941234	     -4.78206222	      3.92269385	      6.77831110	      4.06949684	      9.97445762	      0.17408713	     14.82674776	     -2.95865268	     -4.78206222	     -8.47409314	    -15.58564592	    -11.06149142	     -6.63162379	    -15.52096013	     13.57806757	     40.21356624	    102.72849461	      0.95321586	    -16.54447672	     -4.51569266	     50.22906998	    100.43204240
